<svg xmlns="http://www.w3.org/2000/svg" viewBox="0 0 851.89 957.03"><defs><style>.cls-1{isolation:isolate;}.cls-11,.cls-12,.cls-13,.cls-14,.cls-15,.cls-16,.cls-17,.cls-18,.cls-19,.cls-2,.cls-20,.cls-21,.cls-22,.cls-23,.cls-24,.cls-25,.cls-26,.cls-27,.cls-28{fill:#0074ff;}.cls-3{fill:#4c5457;}.cls-4{fill:#fff;}.cls-5{fill:#8d9ea8;}.cls-6{fill:#fdfeff;}.cls-7{fill:#818e96;}.cls-8{fill:#adbcc3;}.cls-9{fill:#5d5d5d;}.cls-10,.cls-20{opacity:0.5;}.cls-10{mix-blend-mode:screen;}.cls-11{opacity:0;}.cls-12{opacity:0.06;}.cls-13{opacity:0.11;}.cls-14{opacity:0.17;}.cls-15{opacity:0.22;}.cls-16{opacity:0.28;}.cls-17{opacity:0.33;}.cls-18{opacity:0.39;}.cls-19{opacity:0.44;}.cls-21{opacity:0.56;}.cls-22{opacity:0.61;}.cls-23{opacity:0.67;}.cls-24{opacity:0.72;}.cls-25{opacity:0.78;}.cls-26{opacity:0.83;}.cls-27{opacity:0.89;}.cls-28{opacity:0.94;}</style></defs><title>logo</title><g class="cls-1"><g id="Layer_1" data-name="Layer 1"><path d="M636.86,980.93c-.75-.43-2.74-1.6-5.09-3l0,.12-12.61-1.15c-36.86-2.62-63.92-21.61-79.79-36.55l-11.72-4.41c-11.92-4.47-19.44-14.43-23.71-22.22a45.41,45.41,0,0,1-5.91.37,52.35,52.35,0,0,1-13.42-1.74L469.51,908l7.33-13.88a35.91,35.91,0,0,0,4.26-17.55l-1.74-.28c-31.37-5.11-54.54-35.13-66.75-55.12l-5.32-1.89c-38.52-13.76-56.07-52.41-63.9-80.48l-6.93-3.15c-25.56-11.66-44.07-32.53-53.53-60.35q-1.81-5.35-3.15-10.92L271,673.17l-8.66-12.73c-14.35-21.11-8.77-48.08-4-62.59-35.12-28.71-36.42-91.8-36.45-94.57l-.3-20.94,18.73,9.37c.91.45,1.82.87,2.76,1.27a41,41,0,0,1-.21-16.36l2.84-13.76,13.08,4.06c3.7-40.19,19.43-62.85,31.82-74.73a63.08,63.08,0,0,1-9-10.64L269.29,362.6l22.63-.73a54.46,54.46,0,0,0,8.74-1c-10.54-14.69-13-32.73-13.33-35.13l-1.75-14.58,14.67.32,1.94,0c11,0,17.29-2.11,20.6-3.85-7.89-62.44-1.39-130.52,16.09-166.88,16.39-34.1,15.42-62.61,14.73-70.54-1.88-21.59,10.48-28.47,17.27-29.09l1.07-.1,1.08.09c37.24,2.82,74.6,20.32,108,50.6,6.58,6,12.4,11.88,17.4,17.35l12.92-1c1.89-.14,4-.22,6.25-.22A190.93,190.93,0,0,1,543.22,110c1.78-11.63,9-17.94,13.76-20l10.48-4.58,5.68,9.93c5.38,9.42,41.45,29.93,50.16,29.93h34.15c8.71,0,44.77-20.51,50.16-29.93l5.68-9.93L723.77,90c4.76,2.08,12,8.39,13.76,20a190.64,190.64,0,0,1,25.6-2.14c2.26,0,4.37.08,6.27.22l12.9,1c5-5.47,10.83-11.38,17.41-17.34,33.4-30.29,70.76-47.79,108-50.62l1-.08,1.08.1c6.79.62,19.14,7.51,17.27,29.09-.69,7.93-1.67,36.44,14.73,70.54,17.47,36.36,24,104.44,16.09,166.88,3.3,1.74,9.58,3.85,20.59,3.85l1.93,0,14.68-.32-1.75,14.57c-.29,2.41-2.77,20.44-13.33,35.14a54.59,54.59,0,0,0,8.75,1l22.62.73-12.36,19a63.71,63.71,0,0,1-9,10.63c12.4,11.87,28.12,34.54,31.82,74.73l13.08-4.06,2.84,13.75a41,41,0,0,1-.2,16.37c.93-.4,1.85-.82,2.75-1.27l18.73-9.37-.29,20.94a188.06,188.06,0,0,1-5.46,39.43c-6.23,25-16.64,43.48-31,55.14,4.76,14.52,10.34,41.48-4,62.59l-8.65,12.73-8.79-8.78c-.88,3.71-1.94,7.36-3.15,10.92-9.45,27.82-28,48.69-53.53,60.35l-6.93,3.15c-7.83,28.07-25.38,66.72-63.9,80.47l-5.32,1.9c-12.2,20-35.38,50-66.75,55.12l-1.73.28a35.82,35.82,0,0,0,4.26,17.55L811.23,908l-15.09,4.31a52.63,52.63,0,0,1-13.41,1.74,45.52,45.52,0,0,1-5.91-.37c-4.27,7.79-11.79,17.75-23.71,22.22l-11.72,4.4c-15.86,15-42.93,33.94-79.78,36.56L649,978l0-.12c-2.35,1.43-4.35,2.6-5.1,3l-3.51,2Z" transform="translate(-214.42 -34.02)"/><path class="cls-2" d="M908.75,48.08l.48,0c.51.05,12.68,1.39,10.93,21.52-.73,8.37-1.77,38.47,15.4,74.18C953,180.07,959,248.47,950.46,311c2.67,2.43,10.39,7.54,28.1,7.54l2.08,0,6.61-.14-.79,6.57c-.15,1.22-3.31,26-19,39.56a63.19,63.19,0,0,0,21.14,4.39l10.19.33-5.57,8.55a54.61,54.61,0,0,1-14,14.31c12.53,9.47,32.29,31.52,35.95,77.75l.4,5,1,0a24.11,24.11,0,0,0,7.15-1.13l6-1.87L1031,478a34.52,34.52,0,0,1-5.43,25.64,61.58,61.58,0,0,0,18-5.7l8.44-4.22-.13,9.43c0,2.84-1.37,67.35-37.77,92.15,4.31,11.28,12.91,40-1.49,61.18l-3.9,5.73-4.9-4.9L996.49,650a118.51,118.51,0,0,1-5.31,23c-8.81,25.94-26,45.39-49.8,56.23l-6.28,2.86-1.67-6.67c-5.4,25.22-20.86,72.4-62.33,87.21L864.64,815l-.22-1.27c-11.28,19.47-33.78,50.71-64.16,55.66l-7.11,1.16a42.77,42.77,0,0,0,4.57,26.84l3.3,6.26-6.8,1.94a46,46,0,0,1-11.49,1.47,34.87,34.87,0,0,1-9.79-1.3c-3.21,7.27-10.09,19-22.29,23.6l-6.18,2.32-.8-3.62c-12.88,14-41.32,38.93-82.63,41.83l-6.15.56-.71-4.44c-3.31,2.78-13.81,8.86-13.81,8.86s-10.49-6.08-13.81-8.86l-.7,4.44-6.15-.56c-41.32-2.9-69.76-27.83-82.63-41.83l-.8,3.62-6.19-2.32c-12.2-4.57-19.07-16.33-22.28-23.6a34.94,34.94,0,0,1-9.8,1.3,46.13,46.13,0,0,1-11.49-1.47l-6.79-1.94,3.3-6.26a42.84,42.84,0,0,0,4.57-26.84l-7.12-1.16c-30.38-4.95-52.88-36.19-64.16-55.66l-.21,1.27-6.46-2.31c-41.48-14.81-56.94-62-62.34-87.21l-1.67,6.67-6.27-2.86c-23.77-10.84-41-30.29-49.81-56.23a120,120,0,0,1-5.31-23l-7.32,7.32-4.9,4.9-3.9-5.73c-14.4-21.17-5.8-49.9-1.48-61.18-36.41-24.8-37.74-89.31-37.78-92.15l-.13-9.43,8.44,4.22a61.68,61.68,0,0,0,18,5.7A34.46,34.46,0,0,1,249.72,478l1.27-6.2L257,473.7a24.11,24.11,0,0,0,7.15,1.13l1,0,.4-5c3.66-46.23,23.42-68.28,35.95-77.75a54.79,54.79,0,0,1-14-14.31L282,369.19l10.19-.33a63.13,63.13,0,0,0,21.14-4.39c-15.69-13.55-18.85-38.34-19-39.56l-.79-6.57,6.61.14,2.09,0c17.7,0,25.42-5.11,28.09-7.54-8.58-62.5-2.53-130.9,14.91-167.15,17.16-35.71,16.12-65.81,15.39-74.18C358.83,49.51,371,48.17,371.52,48.12l.48,0,.47,0c35.71,2.71,71.62,19.59,103.86,48.82a252.4,252.4,0,0,1,36,40.4,48.44,48.44,0,0,0-5.07-13.8l-4.22-7.78,8.82-.68c1.75-.13,3.67-.2,5.72-.2,10.87,0,24,1.87,32.3,3.26-1.25-16.63,9.34-21.5,9.87-21.73l4.72-2.06,2.56,4.47c6.77,11.86,45.15,33.46,56.24,33.46h34.15c11.09,0,49.46-21.6,56.23-33.46l2.56-4.47L721,96.4c.52.23,11.12,5.1,9.86,21.73,8.31-1.39,21.43-3.26,32.3-3.26,2,0,4,.07,5.72.2l8.82.68-4.22,7.78a49.06,49.06,0,0,0-5.07,13.8,252.92,252.92,0,0,1,36-40.4c32.24-29.23,68.16-46.11,103.86-48.82l.48,0M371.89,34l-1.2.12-.47,0c-9.17.84-25.94,9.59-23.59,36.67.65,7.48,1.56,34.4-14.06,66.9-17.78,37-24.53,102.4-17.39,165.32a50.47,50.47,0,0,1-13,1.44l-1.77,0-6.63-.14L277.67,304l1.92,16,.79,6.56A95.08,95.08,0,0,0,289,355l-7.53.24-24.87.8,13.59,20.84,5.57,8.54a65.23,65.23,0,0,0,5.13,6.74A100.79,100.79,0,0,0,268,410.32c-7.58,13.58-12.68,29.49-15.19,47.41l-12.4-3.84L237.28,469,236,475.2a42.44,42.44,0,0,0-.79,6.13l-.21-.1-20.59-10.3.32,23,.14,9.43a195.07,195.07,0,0,0,5.66,41c6.08,24.37,16.08,43.07,29.77,55.75-4.67,16.4-8.37,42.74,6.24,64.22l3.9,5.73,9.52,14,6.39-6.39c10.1,29.62,29.88,51.86,57.2,64.31l4,1.83c8.67,29.22,27.44,67.76,67.38,82l3,1.07a173.07,173.07,0,0,0,23.38,29.94c13.37,13.41,27.58,21.94,42.31,25.4a29.57,29.57,0,0,1-3,8.57l-3.31,6.26-8,15.26,16.59,4.73,6.8,1.95a59.57,59.57,0,0,0,15.33,2c.71,0,1.42,0,2.12,0,5.11,8,13.14,17,25,21.45l6.17,2.32,4.25,1.59c16.79,15.54,44.88,34.75,83,37.46l6,.55,5.18.48c1.54.92,2.82,1.67,3.59,2.12l7,4.06,7-4.06c.76-.45,2.05-1.2,3.59-2.12l5.18-.48,6-.55c38.09-2.71,66.19-21.92,83-37.46l4.24-1.59,6.18-2.32c11.91-4.47,19.94-13.43,25-21.45.7,0,1.41,0,2.12,0a59.71,59.71,0,0,0,15.37-2l6.76-1.93,16.58-4.73-8-15.26-3.3-6.25a30.06,30.06,0,0,1-3-8.58c14.73-3.46,28.95-12,42.32-25.4A173.47,173.47,0,0,0,872.79,827l3-1.07c39.93-14.27,58.71-52.81,67.39-82l4-1.82c27.33-12.47,47.11-34.7,57.21-64.32l6.39,6.39,9.51-14,3.9-5.73c14.61-21.49,10.91-47.82,6.25-64.22,13.69-12.68,23.68-31.38,29.76-55.75a195.83,195.83,0,0,0,5.67-41l.13-9.44.32-23-20.58,10.3-.22.1a41.16,41.16,0,0,0-.78-6.12l-1.28-6.21-3.12-15.11-12.4,3.84c-2.51-17.92-7.6-33.83-15.18-47.41a101.58,101.58,0,0,0-12.92-18.18,66.74,66.74,0,0,0,5.12-6.77l5.56-8.53L1024.11,356l-24.86-.8-7.54-.24a94.55,94.55,0,0,0,8.65-28.37l.79-6.58,1.93-16-16.13.35-6.61.14-1.78,0a50.56,50.56,0,0,1-13-1.44c7.14-62.93.4-128.34-17.38-165.32-15.63-32.51-14.72-59.42-14.07-66.9,2.35-27.07-14.41-35.82-23.6-36.67l-.47,0-1.2-.12-1.2.1-.48,0C868.38,37.1,829.58,55.22,795,86.56c-5.75,5.22-11,10.39-15.54,15.29l-.73-.06-8.82-.68c-2.06-.16-4.35-.24-6.79-.24a176,176,0,0,0-20.33,1.39c-3.62-10.42-11.06-16.43-16.23-18.69l-4.72-2.06-11.51-5-6.25,10.92-2.56,4.47c-1.07,1.75-7.56,7.89-20.66,15.6-12.66,7.46-21.42,10.51-23.65,10.81h-33.7c-2.23-.3-11-3.35-23.65-10.81-13.1-7.71-19.58-13.85-20.67-15.62l-2.55-4.45-6.24-10.92-11.52,5-4.72,2.07c-5.17,2.25-12.61,8.26-16.23,18.68a175.81,175.81,0,0,0-20.33-1.39c-2.43,0-4.72.08-6.81.25l-8.8.67-.72.06c-4.6-4.89-9.79-10.07-15.54-15.29C451.17,55.22,412.37,37.1,373.53,34.15l-.43,0-1.21-.1Z" transform="translate(-214.42 -34.02)"/><path class="cls-3" d="M950.79,487.48a37.22,37.22,0,0,0,30.61,3.19s-15.94-11.48-19.76-26.79S934.85,425,934.85,425s19.77-.64,29.33,8.29c0,0-6.37-24.23-28.69-35.71s-37.63-31.25-37.63-47.83l14,12.76S927.2,296.16,922.1,235s-24.88-92.47-24.88-92.47,7.66,31.88,5.11,47.19c0,0-3.19-30-17.86-38.9s-20.41,18.49-20.41,18.49l16,5.1s-7,1.92-15.31,10.21a191.06,191.06,0,0,0-16.58,19.76s16.58,5.11,20.41,26.79c0,0-8.93-7.65-30,0,0,0,19.77-.64,25.5,10.84S836,249.61,841.11,276.4c0,0,10.2-7,28.06-1.92,0,0-26.15,14.67-14.67,35.08s40.17,12.12,40.17,12.12S882.56,349.1,850,346.54c0,0,12.75-7.65,18.49-14.66,0,0-22.32-2.55-24.87-17.22a51.27,51.27,0,0,0-1.92,16.58c.64,8.29-13.39-11.48-5.74-37.63,0,0-7.65,5.74-9.56,17.86s-17.22-29.34,5.1-61.86c0,0-19.13.64-26.78,11.48,0,0-8.29-26.14,17.85-40.17,0,0-27.42-6.38-31.24-5.11s1.27-5.1,26.14-15.3,27.42-26.79,27.42-26.79-20.41,11.48-30,10.85,18.5-68.24,61.86-91.83c0,0-25.51-.64-48.47,27.42s-46.55,66.32-46.55,66.32l9.57,1.27s-7.66,7-19.14,24.87S748,233,748,233l18.5-59.94s-26.79,8.93-40.82,36.35c0,0-14-24.24,7.65-59.95,0,0-40.81,1.92-56.11,31.25,0,0-2.55-15.3,10.84-30,0,0-14-.64-26.78,12.12s-17.23,12.75-17.23,12.75l7.66-8.93a35.65,35.65,0,0,1-22.67,0l7.65,8.93s-4.46,0-17.22-12.75-26.78-12.12-26.78-12.12c13.39,14.67,10.84,30,10.84,30-15.31-29.33-56.12-31.25-56.12-31.25,21.68,35.71,7.65,59.95,7.65,59.95-14-27.42-40.81-36.35-40.81-36.35L532.74,233s-12.75-2.55-24.23-20.41-19.13-24.87-19.13-24.87l9.56-1.27s-23.59-38.26-46.55-66.32-48.47-27.42-48.47-27.42c43.37,23.59,71.43,91.19,61.86,91.83s-30-10.85-30-10.85,2.55,16.59,27.42,26.79,30,16.58,26.15,15.3-31.25,5.11-31.25,5.11C484.28,235,476,261.09,476,261.09c-7.66-10.84-26.79-11.48-26.79-11.48,22.32,32.52,7,74,5.11,61.86s-9.57-17.86-9.57-17.86c7.65,26.15-6.38,45.92-5.74,37.63a51.1,51.1,0,0,0-1.91-16.58c-2.55,14.67-24.87,17.22-24.87,17.22,5.74,7,18.49,14.66,18.49,14.66-32.52,2.56-44.64-24.86-44.64-24.86s28.7,8.28,40.18-12.12-14.67-35.08-14.67-35.08c17.85-5.1,28.06,1.92,28.06,1.92,5.1-26.79-28.7-23-23-34.44s25.51-10.84,25.51-10.84c-21.05-7.65-30,0-30,0,3.82-21.68,20.4-26.79,20.4-26.79A191.06,191.06,0,0,0,416,184.57c-8.29-8.29-15.3-10.21-15.3-10.21l15.94-5.1s-5.74-27.42-20.41-18.49-17.85,38.9-17.85,38.9c-2.55-15.31,5.1-47.19,5.1-47.19S363.75,173.72,358.65,235s10.2,127.54,10.2,127.54l14-12.76c0,16.58-15.3,36.35-37.62,47.83s-28.7,35.71-28.7,35.71c9.56-8.93,29.34-8.29,29.34-8.29s-23,23.6-26.79,38.9-19.77,26.79-19.77,26.79A37.22,37.22,0,0,0,330,487.48c-12.75,43.36-61.22,49.1-61.22,49.1,5.74,26.78,29.33,36.35,29.33,36.35,30.61-20.41,46.56-8.29,46.56-8.29-37,8.29-46.55,44-46.55,44,30-18.49,53.56-1.91,53.56-1.91-28.69,28.7-21,61.22-21,61.22,14-24.23,59.3-15.31,59.3-15.31-16.58,14-14.66,41.46-14.66,41.46s14.66-31.25,49.74-31.89,48.47,35.07,48.47,35.07c5.74-20.4-14-42.72-14-42.72,16.57,3.83,30,15.3,30,15.3-2.55-15.94,9.56-28.69,8.29-25.51s6.38,32.53,12.75,25.51,52.93-59.94,52.93-59.94c-2.55,25.5-14,45.91-22.32,67s-5.1,95-5.1,95-7,7.66,0,21.05,26.15,23.6,26.15,23.6c38.9-3.83,43.36-26.79,43.36-26.79-22.32-3.82-21.68-19.13-22.32-26.14s-3.19-8.93-10.84-16.59,6.38-35.71,23-49.74c12.79-10.82,35.44-10.64,45.13-10,9.69-.65,32.34-.83,45.13,10,16.58,14,30.62,42.09,23,49.74s-10.2,9.57-10.84,16.59,0,22.32-22.32,26.14c0,0,4.47,23,43.37,26.79,0,0,19.13-10.21,26.14-23.6s0-21.05,0-21.05,3.19-74-5.1-95-19.77-41.46-22.32-67c0,0,46.55,52.93,52.93,59.94s14-22.32,12.76-25.51,10.84,9.57,8.29,25.51c0,0,13.39-11.47,30-15.3,0,0-19.77,22.32-14,42.72,0,0,13.39-35.71,48.46-35.07s49.75,31.89,49.75,31.89,1.91-27.43-14.67-41.46c0,0,45.28-8.92,59.31,15.31,0,0,7.65-32.52-21-61.22,0,0,23.59-16.58,53.57,1.91,0,0-9.57-35.71-46.55-44,0,0,15.94-12.12,46.55,8.29,0,0,23.59-9.57,29.33-36.35C1012,536.58,963.55,530.84,950.79,487.48Zm-99.48-19.77c-13.39,20.41-27.42,21.68-38.26,20.41s-19.77-1.28-25.51,9.56-35.71,33.16-48.47,35.71c0,0,38.27,5.74,52.93-21,0,0-7,43.36-61.22,31.88,0,0-8.93,3.19-9.57,7s6.38,7.65,2.56,14-14,20.41-10.84,29.34c0,0-8.93-1.91-17.86-31.25S677.22,518.73,660,521.91l3.19-5.74s-5.63-8.92-22.82-12.25c-17.19,3.33-22.81,12.25-22.81,12.25l3.19,5.74c-17.22-3.18-26.15,12.12-35.08,41.45s-17.86,31.25-17.86,31.25c3.19-8.93-7-23-10.83-29.34s3.19-10.19,2.55-14-9.57-7-9.57-7c-54.2,11.48-61.22-31.88-61.22-31.88,14.67,26.78,52.93,21,52.93,21-12.75-2.55-42.73-24.87-48.47-35.71s-14.66-10.84-25.5-9.56-24.87,0-38.27-20.41-10.2-40.81-9.56-37.63,12.75,12.76,12.75,12.76c-7-12.12-3.82-28.7,8.29-50.38s10.21-33.8,10.21-33.8c8.92,15.94,33.16,21.68,33.16,21.68-7.66-9.57-5.74-21-5.74-21a99.48,99.48,0,0,0,35.07,29.33c22.32,10.84,24.23,28.7,24.23,28.7-43.36-20.41-67-13.39-67-13.39s-20.41,25.51-21.05,47.19,14.67,19.77,19.13,9.56c4.14-9.46,12.66-6.31,13.87-5.8-14.59-6.89-26,.06-26,.06,26.79-31.24,75.26,12.12,75.26,12.12-10.21-21.68-33.8-27.42-33.8-27.42,24.23-4.46,44,13.39,56.11,41.45s22.33,34.44,20.41,2.55-25.51-57.39-25.51-57.39c39.54,13.39,57.4,67.59,57.4,67.59,13.95-12.29,25.64-17.47,33.65-19.63,8,2.16,19.71,7.34,33.66,19.63,0,0,17.86-54.2,57.39-67.59,0,0-23.59,25.51-25.51,57.39s8.29,25.51,20.41-2.55,31.88-45.91,56.12-41.45c0,0-23.6,5.74-33.8,27.42,0,0,48.47-43.36,75.25-12.12,0,0-11.4-6.95-26-.06,1.22-.51,9.73-3.66,13.87,5.8,4.47,10.21,19.77,12.12,19.13-9.56s-21-47.19-21-47.19-23.59-7-67,13.39c0,0,1.91-17.86,24.23-28.7a99.57,99.57,0,0,0,35.08-29.33s1.91,11.47-5.74,21c0,0,24.23-5.74,33.16-21.68,0,0-1.91,12.11,10.2,33.8s15.31,38.26,8.29,50.38c0,0,12.12-9.57,12.75-12.76S864.7,447.3,851.31,467.71Z" transform="translate(-214.42 -34.02)"/><path class="cls-4" d="M606.72,493.85a116.19,116.19,0,0,1,12.6-9.71c-8.49-9.44-24.72-34.29-24.72-34.29s.66,9.19.84,19.6A150.12,150.12,0,0,1,606.72,493.85Z" transform="translate(-214.42 -34.02)"/><path class="cls-4" d="M554.42,481.1c12.12,28.06,22.33,34.44,20.41,2.55a77.89,77.89,0,0,0-3-17c-20.82-27.76-52.46-34-52.46-34l5.85,11.7C537.22,451.22,547.19,464.34,554.42,481.1Z" transform="translate(-214.42 -34.02)"/><path class="cls-4" d="M502.06,440.85a27.64,27.64,0,0,0-12.91,3.51c22,3.95,43,22.71,43,22.71C524.42,450.73,509.13,443.45,502.06,440.85Z" transform="translate(-214.42 -34.02)"/><path class="cls-4" d="M726.32,481.1c7.24-16.76,17.21-29.88,29.22-36.77l5.85-11.7s-31.64,6.26-52.45,34a77.9,77.9,0,0,0-3,17C704,515.54,714.2,509.16,726.32,481.1Z" transform="translate(-214.42 -34.02)"/><path class="cls-4" d="M748.64,467.07s21-18.76,43-22.71a27.59,27.59,0,0,0-12.9-3.51C771.62,443.45,756.33,450.73,748.64,467.07Z" transform="translate(-214.42 -34.02)"/><path class="cls-4" d="M685.31,469.45c.18-10.41.83-19.6.83-19.6s-16.23,24.85-24.71,34.29a117.17,117.17,0,0,1,12.6,9.71A149.07,149.07,0,0,1,685.31,469.45Z" transform="translate(-214.42 -34.02)"/><path class="cls-4" d="M866,575.48s20.41-12.75,61.22,9.57c0,0-12.76-22.33-30-35.08s-38.89-18.49-38.89-18.49a186.41,186.41,0,0,0,8.92,17.85s-26.78,0-45.91,18.5a45,45,0,0,1,31.25,18.49s-13.39,2.55-42.73.64-31.25-13.39-31.25-13.39l17.22-17.22s-32.52.64-37.63-1.28,24.24-1.27,37.63-15.3a132.18,132.18,0,0,0,31.25-3.19c17.21-3.83-19.77.64-19.77-11.48l33.16-12.75s-10.41-28.1-45.34-22.71a18.09,18.09,0,0,0-7.59,8c-5.74,10.84-35.71,33.16-48.47,35.71,0,0,38.27,5.74,52.93-21,0,0-7,43.36-61.22,31.88,0,0-8.93,3.19-9.57,7s6.38,7.65,2.56,14-14,20.41-10.84,29.34c0,0-8.93-1.91-17.86-31.25S677.22,518.73,660,521.91l3.19-5.74s-5.63-8.92-22.82-12.25c-17.19,3.33-22.81,12.25-22.81,12.25l3.19,5.74c-17.22-3.18-26.15,12.12-35.08,41.45s-17.86,31.25-17.86,31.25c3.19-8.93-7-23-10.83-29.34s3.19-10.19,2.55-14-9.57-7-9.57-7c-54.2,11.48-61.22-31.88-61.22-31.88,14.67,26.78,52.93,21,52.93,21-12.75-2.55-42.73-24.87-48.47-35.71a18.09,18.09,0,0,0-7.59-8c-34.92-5.39-45.34,22.71-45.34,22.71l33.17,12.75c0,12.12-37,7.65-19.77,11.48a132.18,132.18,0,0,0,31.25,3.19c13.39,14,42.72,13.39,37.62,15.3s-37.62,1.28-37.62,1.28l17.21,17.22s-1.91,11.48-31.24,13.39-42.73-.64-42.73-.64a45,45,0,0,1,31.25-18.49c-19.14-18.49-45.92-18.5-45.92-18.5a188.23,188.23,0,0,0,8.93-17.85s-21.68,5.73-38.9,18.49-30,35.08-30,35.08c40.82-22.32,61.22-9.57,61.22-9.57-62.89,31-77.7,71.37-81.18,88.3,16.53-19,56.31-11.14,56.31-11.14-16.58,14-14.66,41.46-14.66,41.46s14.66-31.25,49.74-31.89,48.47,35.07,48.47,35.07c5.74-20.4-14-42.72-14-42.72,16.57,3.83,30,15.3,30,15.3-2.55-15.94,9.56-28.69,8.29-25.51s6.38,32.53,12.75,25.51,52.93-59.94,52.93-59.94c-2.55,25.5-14,45.91-22.32,67s-5.1,95-5.1,95-7,7.66,0,21.05,26.15,23.6,26.15,23.6c38.9-3.83,43.36-26.79,43.36-26.79-22.32-3.82-21.68-19.13-22.32-26.14s-3.19-8.93-10.84-16.59,6.38-35.71,23-49.74c12.79-10.82,35.44-10.64,45.13-10,9.69-.65,32.34-.83,45.13,10,16.58,14,30.62,42.09,23,49.74s-10.2,9.57-10.84,16.59,0,22.32-22.32,26.14c0,0,4.47,23,43.37,26.79,0,0,19.13-10.21,26.14-23.6s0-21.05,0-21.05,3.19-74-5.1-95-19.77-41.46-22.32-67c0,0,46.55,52.93,52.93,59.94s14-22.32,12.76-25.51,10.84,9.57,8.29,25.51c0,0,13.39-11.47,30-15.3,0,0-19.77,22.32-14,42.72,0,0,13.39-35.71,48.46-35.07s49.75,31.89,49.75,31.89,1.91-27.43-14.67-41.46c0,0,39.78-7.84,56.32,11.14C943.68,646.85,928.88,606.44,866,575.48Z" transform="translate(-214.42 -34.02)"/><path class="cls-5" d="M510.42,669.86c5.64-6.19,42.6-48.2,51.15-57.92a188.71,188.71,0,0,1,9.85-19.78c-2.22,2.15-3.61,2.45-3.61,2.45,3.19-8.93-7-23-10.83-29.34s3.19-10.19,2.55-14-9.57-7-9.57-7c-44.78,9.49-57.35-18.45-60.36-28.45-10.29-13.66-25.14-18.41-35.73-20a39.34,39.34,0,0,0-8,7.42c4.71,6.95,12.2,16.14,19.93,18.07,12.76,3.19,21.68,8.3,18.5,9.57s-16.58,5.74-16.58,5.74a22.24,22.24,0,0,0,.94,2.44,117.55,117.55,0,0,0,16.28.75c13,13.63,41.06,13.41,38,15.14,35.65-10.16,31.73,2.92,21.34,7.81-10.84,5.11-28.06,14-28.06,14s45.92-2.56,40.82,11.48-47.83,76.52-47.83,76.52c-7-19.13.64-32.52.64-32.52-19.78-2.56-33.8.63-33.8.63a47.16,47.16,0,0,1,9.56,22.32s-15.3-23-33.8-33.16S418,613.1,418,613.1c14,7.66,18.49,23.6,18.49,23.6s-12.12-3.83-17.86-6.38-12.75-10.84-12.75-10.84l1.28,10.84c-11.48-1.28-31.25,3.83-31.25,3.83,13.39-8.29,22.32-23,22.32-23l-9.57,4.47L395,608c-22.46,5.32-38.23,15.39-49.17,25.84a94.35,94.35,0,0,0-12.25,29.94c16.53-19,56.31-11.14,56.31-11.14-16.58,14-14.66,41.46-14.66,41.46s14.66-31.25,49.74-31.89,48.47,35.07,48.47,35.07c5.74-20.4-14-42.72-14-42.72,16.57,3.83,30,15.3,30,15.3-2.55-15.94,9.56-28.69,8.29-25.51S504.05,676.88,510.42,669.86Z" transform="translate(-214.42 -34.02)"/><path class="cls-5" d="M583.12,763.61c-.64-7-3.19-8.93-10.84-16.59-4.5-4.49-1.51-16,5.08-27.62-23.52,17.14-23.26,13.59-30.59-15.74-3.19-12.76-4.71-21.53-4.25-30.47-.51,1.22-1,2.45-1.49,3.69-8.29,21-5.1,95-5.1,95a9.5,9.5,0,0,0-.93,1.33,39.37,39.37,0,0,0,8.58,18.44c6.15,7.47,17.14,18.26,23.38,24.25,34.37-5.18,38.48-26.16,38.48-26.16C583.12,785.93,583.76,770.62,583.12,763.61Z" transform="translate(-214.42 -34.02)"/><path class="cls-5" d="M554.42,481.1c11.3,26.17,20.94,33.47,20.63,8.47-8.09-2.49-17.69-11.54-26.62-20.43A115,115,0,0,1,554.42,481.1Z" transform="translate(-214.42 -34.02)"/><path class="cls-5" d="M521.1,555.43c-7.26,1.33-31,1-35.46.93,7.57,3.35,18.06,4.48,32.44,0C519.12,556,520.11,555.73,521.1,555.43Z" transform="translate(-214.42 -34.02)"/><path class="cls-5" d="M532.11,467.07a48.59,48.59,0,0,0-16.25-19,48.67,48.67,0,0,0-11,1.34A121.22,121.22,0,0,1,532.11,467.07Z" transform="translate(-214.42 -34.02)"/><path class="cls-2" d="M501.49,487.48s19.77-1.28,33.8,9.56,15.94,30,15.94,30-7-5.1-10.2-6.37S508.51,506,501.49,487.48Z" transform="translate(-214.42 -34.02)"/><path d="M559.53,778.91a5.74,5.74,0,1,1-5.74-5.74A5.74,5.74,0,0,1,559.53,778.91Z" transform="translate(-214.42 -34.02)"/><path d="M586.31,790.39a5.74,5.74,0,1,1-5.74-5.74A5.74,5.74,0,0,1,586.31,790.39Z" transform="translate(-214.42 -34.02)"/><path d="M574.19,774.76a3.51,3.51,0,1,1-3.5-3.5A3.51,3.51,0,0,1,574.19,774.76Z" transform="translate(-214.42 -34.02)"/><path d="M568.45,799.32a5.74,5.74,0,1,1-5.74-5.74A5.75,5.75,0,0,1,568.45,799.32Z" transform="translate(-214.42 -34.02)"/><path class="cls-6" d="M375.23,227.13s12.43-43.52,14.35-48.3-1,23.91,3.82,51.65S402,272.09,402,272.09s-11,1-15.3-7.65c0,0,.47,16.26,8.61,30.13s15.78,11.95,15.78,11.95-28.7,11-37.31-12.91S375.23,227.13,375.23,227.13Z" transform="translate(-214.42 -34.02)"/><path d="M398.82,530.84s-3.82,23.6-30.61,28.06C368.21,558.9,393.09,537.22,398.82,530.84Z" transform="translate(-214.42 -34.02)"/><path d="M466.42,497s-8.29-8.29-28.7,0-29.33,23.6-29.33,23.6,39.54-1.28,70.79,7c0,0-13.4-17.85-33.17-19.77C446,507.88,456.86,497,466.42,497Z" transform="translate(-214.42 -34.02)"/><path d="M428.8,528.29s41.45,14,61.21,7.66c0,0-.63,7.65-11.47,10.19s39.54,10.85,49.1,8.94c0,0-9.57,9.56-26.15,10.19,0,0,27.43,5.11,38.27-2.54,0,0-11.48,20.4-40.18,16.58S439,545.51,428.8,528.29Z" transform="translate(-214.42 -34.02)"/><path d="M381,213.26s-5.74,71.43-5.1,83.54-8.29-14.67-8.29-38.9S381,213.26,381,213.26Z" transform="translate(-214.42 -34.02)"/><path d="M488.1,238.77s15.95-5.74,28.06,0,20.41,6.38,20.41,6.38a108.24,108.24,0,0,1-24.87,14.66,216.36,216.36,0,0,0-23,10.85s7.65-19.13,24.23-24.88A94.87,94.87,0,0,0,488.1,238.77Z" transform="translate(-214.42 -34.02)"/><path class="cls-7" d="M544.86,249.61s23,2.55,45.28,33.16S612.46,330,612.46,330s10.2-31.88-4.47-69.51c0,0,16.58,10.84,22.32,22.32,0,0-5.74-52.93-53.56-79.07,0,0,8.92,17.85,8.92,32.52,0,0-10.2-10.84-29.33-13.39l13.39,17.85S555.54,239.09,544.86,249.61Z" transform="translate(-214.42 -34.02)"/><path class="cls-8" d="M585.67,236.22s-10.2-10.84-29.33-13.39l.74,1c7,3.67,21.34,12.23,26.68,22.91a31.67,31.67,0,0,0-14.73-6.1c-3-.17-14.88-.17-24.17,9,0,0,.54.07,1.52.27,5.46-.73,13.22-.79,24,1.16,26.3,4.79,39.69,20.57,39.69,20.57s-12.37-20.07-24.39-35.43Z" transform="translate(-214.42 -34.02)"/><path class="cls-8" d="M577.77,204.29c4.43,5.31,14.89,18.41,22.25,32.41,0,0,22,20.25,28.68,43.3a29.16,29.16,0,0,1,1.61,2.77S624.63,230.63,577.77,204.29Z" transform="translate(-214.42 -34.02)"/><path class="cls-7" d="M517.28,273.05s39.7-5.26,67,29.17,26.78,76,26.78,76-19.61-31.57-47.83-35.87a66.64,66.64,0,0,1,20.09,40.17c2.87,25.35,8.61,36.83,8.61,36.83s-18.65-23-26.31-47.35c0,0,5.26,25.35-5.26,34.44,0,0,3.35-16.26-28.69-39.7s-70.31-20.57-70.31-20.57,35.87-17.69,67.91-11c0,0-16.73-33.48-49.74-26.3,0,0,36.35-26.31,78-9.09C557.45,299.83,546,284.05,517.28,273.05Z" transform="translate(-214.42 -34.02)"/><path class="cls-8" d="M607.73,352.65c-3.32-14.63-10-33.4-23.49-50.43a75.74,75.74,0,0,0-33.94-24.63c12.54,11.09,31.38,28.8,42.07,50.46,0,0-13.82-18.47-36-29.59.74.86,1.11,1.37,1.11,1.37-41.61-17.22-78,9.09-78,9.09.93-.21,1.84-.36,2.74-.5,9.95-3.87,27.27-7.12,54.18-1.42C570.38,314.21,596,339.14,607.73,352.65Z" transform="translate(-214.42 -34.02)"/><path class="cls-8" d="M552.67,352.92s16.21,4.56,27.36,15.63a67.8,67.8,0,0,0-15.71-25.09c-5.9-1.82-35.09-8.24-35.09-8.24-27.63-5.77-58.09,6.59-66,10.1,11-2.24,36-5.54,60.7,3.77,27.86,10.5,38.33,36.66,36.32,54.07a11.36,11.36,0,0,1,0,3.33c10.52-9.09,5.26-34.44,5.26-34.44q.76,2.42,1.65,4.8A42.44,42.44,0,0,0,552.67,352.92Z" transform="translate(-214.42 -34.02)"/><path class="cls-7" d="M534.65,415.87c-41.32-18.59-63.76-11.93-63.76-11.93s-13.39,16.73-18.81,34.61c4.93-3.89,14.14-9.77,31.24-17.72C509.46,408.68,527.66,413.16,534.65,415.87Z" transform="translate(-214.42 -34.02)"/><path class="cls-7" d="M406.48,375.88S365,386.08,351.63,418.6l59.31-21A89.28,89.28,0,0,0,388.62,395C375.23,395,406.48,375.88,406.48,375.88Z" transform="translate(-214.42 -34.02)"/><path class="cls-8" d="M352.72,418.22l2.44-.87c7.86-5.65,26-17.27,47.55-21.38a102,102,0,0,0-14.09-1c-2.37,0-3.32-.61-3.32-1.59C378.19,395.92,364.5,402.66,352.72,418.22Z" transform="translate(-214.42 -34.02)"/><path class="cls-7" d="M407.12,412.87s-19.14-1.6-36.67,18.49a169,169,0,0,1-37.95,31.88,64,64,0,0,0,41.77-9.88C394.68,440,407.12,412.87,407.12,412.87Z" transform="translate(-214.42 -34.02)"/><path class="cls-7" d="M397.87,447.62l-3.19,12.11L400.42,447s6.38,16.9-11.16,52-67.92,42.09-67.92,42.09,42.73-28.38,56.12-54.85a51.9,51.9,0,0,1-39.86,4.15S378.74,469,397.87,447.62Z" transform="translate(-214.42 -34.02)"/><path class="cls-8" d="M337.92,490.18c5.15,0,17.87-1.41,35.71-13.23,16.29-10.78,21.79-22.47,23.63-28.68C378.85,468.37,341.57,488.26,337.92,490.18Z" transform="translate(-214.42 -34.02)"/><path class="cls-8" d="M364.39,515.54c26.14-27.11,28.7-50.38,28.7-50.38-6.17,10.54-12.45,17.55-17.68,22.15,1.31-.65,2-1.11,2-1.11-12.53,24.77-50.76,51.21-55.61,54.5C334.94,536.6,351.3,529.1,364.39,515.54Z" transform="translate(-214.42 -34.02)"/><path class="cls-8" d="M370.45,431.36a169,169,0,0,1-37.95,31.88s1.09.18,3,.3c4.77-1.43,12.17-4.67,23.43-11.62,19.13-11.82,29.6-28.79,39.12-38.06C390.85,415.55,380.39,420,370.45,431.36Z" transform="translate(-214.42 -34.02)"/><path class="cls-3" d="M340.79,334.74l6.7,11.48s-8.61,1.92-21.05-5.73C326.44,340.49,331.23,341.44,340.79,334.74Z" transform="translate(-214.42 -34.02)"/><path class="cls-2" d="M410.3,715.77s17.22,47.83,35.07,66.33l19.14-19.77s1.27,3.19-3.19,26.78,0,33.16,0,33.16S409.67,777.63,410.3,715.77Z" transform="translate(-214.42 -34.02)"/><path class="cls-2" d="M472.8,781.46s1.27,17.22,15.94,37.62,22.32,49.11,23,52.3,9.57-23.6-7.65-54.21l-.64,4.46S480.45,802.51,472.8,781.46Z" transform="translate(-214.42 -34.02)"/><path class="cls-2" d="M525.73,841.4s-4.46,20.41,14.67,39.54,35.07,29.34,41.44,38.26l6.38,8.93a73,73,0,0,0-7.65-23c-6.38-12.12,10.84,10.19,26.15,10.83,0,0-35.08-30-51.66-67,0,0,2.55,23.59,9.57,36.35C564.63,885.41,540.4,868.19,525.73,841.4Z" transform="translate(-214.42 -34.02)"/><path class="cls-5" d="M770.32,669.86c-5.63-6.19-42.6-48.2-51.15-57.92a186.77,186.77,0,0,0-9.85-19.78c2.22,2.15,3.61,2.45,3.61,2.45-3.19-8.93,7-23,10.84-29.34s-3.19-10.19-2.56-14,9.57-7,9.57-7c44.79,9.49,57.35-18.45,60.37-28.45,10.29-13.66,25.13-18.41,35.73-20a39.26,39.26,0,0,1,8,7.42c-4.7,6.95-12.2,16.14-19.93,18.07-12.75,3.19-21.68,8.3-18.49,9.57s16.58,5.74,16.58,5.74a24,24,0,0,1-.95,2.44,117.42,117.42,0,0,1-16.27.75c-13,13.63-41.07,13.41-38,15.14-35.65-10.16-31.73,2.92-21.34,7.81,10.85,5.11,28.06,14,28.06,14s-45.91-2.56-40.81,11.48,47.83,76.52,47.83,76.52c7-19.13-.64-32.52-.64-32.52,19.77-2.56,33.8.63,33.8.63a47.24,47.24,0,0,0-9.57,22.32s15.31-23,33.8-33.16,33.8-8.93,33.8-8.93c-14,7.66-18.5,23.6-18.5,23.6s12.12-3.83,17.86-6.38,12.76-10.84,12.76-10.84l-1.28,10.84c11.48-1.28,31.25,3.83,31.25,3.83-13.39-8.29-22.32-23-22.32-23l9.56,4.47L885.75,608c22.45,5.32,38.22,15.39,49.17,25.84a94.6,94.6,0,0,1,12.25,29.94c-16.54-19-56.32-11.14-56.32-11.14,16.58,14,14.67,41.46,14.67,41.46s-14.67-31.25-49.75-31.89-48.46,35.07-48.46,35.07c-5.74-20.4,14-42.72,14-42.72-16.58,3.83-30,15.3-30,15.3,2.55-15.94-9.57-28.69-8.29-25.51S776.7,676.88,770.32,669.86Z" transform="translate(-214.42 -34.02)"/><path class="cls-5" d="M695.07,563.36C686.14,534,677.22,518.73,660,521.91l3.19-5.74s-2.46-3.84-9-7.42c-2.88,2.31-7.28,4.21-13.84,4-6.56.19-11-1.71-13.83-4-6.53,3.58-9,7.42-9,7.42l3.19,5.74c-17.22-3.18-26.15,12.12-35.08,41.45a120.56,120.56,0,0,1-6.21,16.52A82.53,82.53,0,0,1,604.8,557c15.31-8.93,20.41,5.1,28.7,7a14.85,14.85,0,0,0,6.87-.18,14.85,14.85,0,0,0,6.87.18c8.3-1.91,13.4-15.94,28.7-7a82.42,82.42,0,0,1,25.34,22.89A120.56,120.56,0,0,1,695.07,563.36ZM629.67,527c1-.47,5.44-2.27,10.7-4.35,5.26,2.08,9.75,3.88,10.7,4.35,1.42.71-4.85,3-10.7,4.89C634.52,530,628.26,527.72,629.67,527Zm24.59,15.31c-4.58,2-9.55,4.16-13.89,6-4.34-1.84-9.31-4-13.89-6-11.47-5.11-23-1.28-23-1.28s7-9.56,21-7a46.71,46.71,0,0,1,15.8,6,46.79,46.79,0,0,1,15.8-6c14-2.55,21.05,7,21.05,7S665.74,537.21,654.26,542.32Z" transform="translate(-214.42 -34.02)"/><path class="cls-5" d="M697.62,763.61c.64-7,3.19-8.93,10.84-16.59,4.5-4.49,1.51-16-5.08-27.62C726.9,736.54,726.64,733,734,703.66c3.19-12.76,4.71-21.53,4.26-30.47.5,1.22,1,2.45,1.48,3.69,8.29,21,5.1,95,5.1,95a9,9,0,0,1,.94,1.33,39.41,39.41,0,0,1-8.59,18.44c-6.15,7.47-17.13,18.26-23.38,24.25-34.37-5.18-38.48-26.16-38.48-26.16C697.62,785.93,697,770.62,697.62,763.61Z" transform="translate(-214.42 -34.02)"/><path class="cls-5" d="M726.32,481.1c-11.3,26.17-20.93,33.47-20.63,8.47,8.09-2.49,17.69-11.54,26.62-20.43A115,115,0,0,0,726.32,481.1Z" transform="translate(-214.42 -34.02)"/><path class="cls-5" d="M759.65,555.43c7.25,1.33,31,1,35.45.93-7.57,3.35-18.05,4.48-32.43,0C761.63,556,760.63,555.73,759.65,555.43Z" transform="translate(-214.42 -34.02)"/><path class="cls-5" d="M748.64,467.07a48.59,48.59,0,0,1,16.25-19,48.65,48.65,0,0,1,11,1.34A121,121,0,0,0,748.64,467.07Z" transform="translate(-214.42 -34.02)"/><path class="cls-2" d="M779.25,487.48s-19.77-1.28-33.8,9.56-15.94,30-15.94,30,7-5.1,10.2-6.37S772.23,506,779.25,487.48Z" transform="translate(-214.42 -34.02)"/><path class="cls-7" d="M671.48,703.66c-9.06-6.58-22.62-7.32-31.11-7-8.49-.3-22,.44-31.1,7-14,10.2-16.58,27.42-16.58,33.8s3.19,8.93,7.65,12.12,7.65-1.92,18.5,6.37c9.61,7.36,10.72,7.18,21.53,7,10.82.13,11.92.31,21.54-7,10.84-8.29,14-3.19,18.49-6.37s7.66-5.74,7.66-12.12S685.5,713.86,671.48,703.66Z" transform="translate(-214.42 -34.02)"/><path class="cls-9" d="M688,736.28c-5.54.88-14.45,2.54-21,5-10.2,3.83-3.19-1.91,1.28-5.1,4.21-3-12.61,1.37-27.92,1.87-15.31-.5-32.13-4.88-27.91-1.87,4.46,3.19,11.48,8.93,1.27,5.1-6.56-2.46-15.47-4.12-21-5,0,.42,0,.82,0,1.18,0,6.38,3.19,8.93,7.65,12.12s7.65-1.92,18.5,6.37c9.61,7.36,10.72,7.18,21.53,7,10.82.13,11.92.31,21.54-7,10.84-8.29,14-3.19,18.49-6.37s7.66-5.74,7.66-12.12C688.06,737.1,688.05,736.7,688,736.28Z" transform="translate(-214.42 -34.02)"/><path class="cls-2" d="M640.37,787c-8-2-19.62-6.79-19.62-6.79,5.14,7.54,13.23,11.39,19.62,13.35,6.39-2,14.48-5.81,19.63-13.35C660,780.19,648.37,785,640.37,787Z" transform="translate(-214.42 -34.02)"/><path class="cls-9" d="M684.23,833.75c-19.13,1.28-26.78,10.84-35.71,11.48-2.43.18-5.28.25-8.15.27s-5.72-.09-8.14-.27c-8.93-.64-16.59-10.2-35.72-11.48S585,840.13,588.22,842s15.31,15.31,24.24,19.77c7.28,3.64,12.43,9.4,27.91,9.68,15.48-.28,20.64-6,27.92-9.68,8.93-4.46,21-17.85,24.23-19.77S703.36,832.48,684.23,833.75Z" transform="translate(-214.42 -34.02)"/><path class="cls-2" d="M670.84,849.7c-12,8.09-21.8,11.32-30.47,12.6-8.66-1.28-18.49-4.51-30.46-12.6-10.79-7.3-19.68-11.12-25.89-13.12-.21,2,2.57,4.48,4.2,5.46,3.19,1.92,15.31,15.31,24.24,19.77,7.28,3.64,12.43,9.4,27.91,9.68,15.48-.28,20.64-6,27.92-9.68,8.93-4.46,21-17.85,24.23-19.77,1.63-1,4.41-3.44,4.21-5.46C690.52,838.58,681.63,842.4,670.84,849.7Z" transform="translate(-214.42 -34.02)"/><path d="M721.21,778.91a5.74,5.74,0,1,0,5.75-5.74A5.75,5.75,0,0,0,721.21,778.91Z" transform="translate(-214.42 -34.02)"/><path d="M694.43,790.39a5.74,5.74,0,1,0,5.74-5.74A5.74,5.74,0,0,0,694.43,790.39Z" transform="translate(-214.42 -34.02)"/><path d="M706.55,774.76a3.51,3.51,0,1,0,3.51-3.5A3.51,3.51,0,0,0,706.55,774.76Z" transform="translate(-214.42 -34.02)"/><path d="M712.29,799.32a5.74,5.74,0,1,0,5.74-5.74A5.75,5.75,0,0,0,712.29,799.32Z" transform="translate(-214.42 -34.02)"/><path class="cls-6" d="M905.52,227.13s-12.44-43.52-14.35-48.3,1,23.91-3.83,51.65-8.61,41.61-8.61,41.61,11,1,15.31-7.65c0,0-.48,16.26-8.61,30.13s-15.79,11.95-15.79,11.95,28.7,11,37.31-12.91S905.52,227.13,905.52,227.13Z" transform="translate(-214.42 -34.02)"/><path d="M881.92,530.84s3.83,23.6,30.61,28.06C912.53,558.9,887.66,537.22,881.92,530.84Z" transform="translate(-214.42 -34.02)"/><path d="M814.33,497s8.28-8.29,28.69,0,29.33,23.6,29.33,23.6-39.53-1.28-70.78,7c0,0,13.39-17.85,33.16-19.77C834.73,507.88,823.89,497,814.33,497Z" transform="translate(-214.42 -34.02)"/><path d="M852,528.29s-41.45,14-61.22,7.66c0,0,.64,7.65,11.48,10.19S762.67,557,753.1,555.08c0,0,9.57,9.56,26.15,10.19,0,0-27.42,5.11-38.26-2.54,0,0,11.48,20.4,40.17,16.58S841.75,545.51,852,528.29Z" transform="translate(-214.42 -34.02)"/><path d="M899.77,213.26s5.75,71.43,5.11,83.54,8.29-14.67,8.29-38.9S899.77,213.26,899.77,213.26Z" transform="translate(-214.42 -34.02)"/><path d="M792.64,238.77s-15.94-5.74-28.06,0-20.41,6.38-20.41,6.38A108.51,108.51,0,0,0,769,259.81a215.14,215.14,0,0,1,23,10.85s-7.65-19.13-24.23-24.88A94.87,94.87,0,0,1,792.64,238.77Z" transform="translate(-214.42 -34.02)"/><path class="cls-7" d="M735.89,249.61s-23,2.55-45.28,33.16S668.29,330,668.29,330s-10.21-31.88,4.46-69.51c0,0-16.58,10.84-22.32,22.32,0,0,5.74-52.93,53.57-79.07,0,0-8.93,17.85-8.93,32.52,0,0,10.2-10.84,29.34-13.39L711,240.68S725.2,239.09,735.89,249.61Z" transform="translate(-214.42 -34.02)"/><path class="cls-8" d="M695.07,236.22s10.2-10.84,29.34-13.39l-.75,1c-7,3.67-21.33,12.23-26.68,22.91a31.67,31.67,0,0,1,14.73-6.1c3-.17,14.89-.17,24.18,9,0,0-.54.07-1.52.27-5.47-.73-13.23-.79-24,1.16-26.31,4.79-39.7,20.57-39.7,20.57s12.37-20.07,24.4-35.43Z" transform="translate(-214.42 -34.02)"/><path class="cls-8" d="M703,204.29c-4.43,5.31-14.89,18.41-22.26,32.41,0,0-22,20.25-28.68,43.3a31.47,31.47,0,0,0-1.61,2.77S656.11,230.63,703,204.29Z" transform="translate(-214.42 -34.02)"/><path class="cls-7" d="M763.46,273.05s-39.69-5.26-67,29.17-26.79,76-26.79,76,19.61-31.57,47.83-35.87a66.64,66.64,0,0,0-20.09,40.17c-2.87,25.35-8.61,36.83-8.61,36.83s18.66-23,26.31-47.35c0,0-5.26,25.35,5.26,34.44,0,0-3.35-16.26,28.7-39.7s70.3-20.57,70.3-20.57-35.87-17.69-67.91-11c0,0,16.74-33.48,49.74-26.3,0,0-36.35-26.31-78-9.09C723.29,299.83,734.77,284.05,763.46,273.05Z" transform="translate(-214.42 -34.02)"/><path class="cls-8" d="M673,352.65c3.33-14.63,10-33.4,23.5-50.43a75.72,75.72,0,0,1,33.93-24.63c-12.53,11.09-31.38,28.8-42.07,50.46,0,0,13.82-18.47,36-29.59-.74.86-1.12,1.37-1.12,1.37,41.61-17.22,78,9.09,78,9.09-.93-.21-1.83-.36-2.74-.5-10-3.87-27.27-7.12-54.18-1.42C710.36,314.21,684.76,339.14,673,352.65Z" transform="translate(-214.42 -34.02)"/><path class="cls-8" d="M728.07,352.92s-16.21,4.56-27.35,15.63a67.66,67.66,0,0,1,15.71-25.09c5.89-1.82,35.08-8.24,35.08-8.24,27.63-5.77,58.09,6.59,66,10.1-11-2.24-36-5.54-60.7,3.77-27.85,10.5-38.33,36.66-36.32,54.07a11.36,11.36,0,0,0,0,3.33c-10.52-9.09-5.26-34.44-5.26-34.44-.5,1.61-1.06,3.21-1.65,4.8A42.49,42.49,0,0,1,728.07,352.92Z" transform="translate(-214.42 -34.02)"/><path class="cls-7" d="M746.09,415.87c41.32-18.59,63.77-11.93,63.77-11.93s13.38,16.73,18.81,34.61c-4.93-3.89-14.15-9.77-31.24-17.72C771.28,408.68,753.08,413.16,746.09,415.87Z" transform="translate(-214.42 -34.02)"/><path class="cls-7" d="M874.27,375.88s41.45,10.2,54.84,42.72l-59.3-21A89.14,89.14,0,0,1,892.12,395C905.52,395,874.27,375.88,874.27,375.88Z" transform="translate(-214.42 -34.02)"/><path class="cls-8" d="M928,418.22l-2.44-.87c-7.86-5.65-26-17.27-47.55-21.38a102,102,0,0,1,14.09-1c2.37,0,3.32-.61,3.32-1.59C902.55,395.92,916.24,402.66,928,418.22Z" transform="translate(-214.42 -34.02)"/><path class="cls-7" d="M873.63,412.87s19.13-1.6,36.67,18.49a168.83,168.83,0,0,0,37.94,31.88,64,64,0,0,1-41.77-9.88C886.07,440,873.63,412.87,873.63,412.87Z" transform="translate(-214.42 -34.02)"/><path class="cls-7" d="M882.88,447.62l3.19,12.11L880.33,447s-6.38,16.9,11.16,52,67.91,42.09,67.91,42.09-42.72-28.38-56.11-54.85a51.87,51.87,0,0,0,39.85,4.15S902,469,882.88,447.62Z" transform="translate(-214.42 -34.02)"/><path class="cls-8" d="M942.83,490.18c-5.16,0-17.88-1.41-35.72-13.23-16.28-10.78-21.78-22.47-23.63-28.68C901.89,468.37,939.17,488.26,942.83,490.18Z" transform="translate(-214.42 -34.02)"/><path class="cls-8" d="M916.35,515.54c-26.14-27.11-28.69-50.38-28.69-50.38,6.16,10.54,12.44,17.55,17.68,22.15-1.32-.65-2.05-1.11-2.05-1.11,12.53,24.77,50.75,51.21,55.6,54.5C945.81,536.6,929.44,529.1,916.35,515.54Z" transform="translate(-214.42 -34.02)"/><path class="cls-8" d="M910.3,431.36a168.83,168.83,0,0,0,37.94,31.88s-1.08.18-3,.3c-4.78-1.43-12.17-4.67-23.43-11.62-19.14-11.82-29.61-28.79-39.12-38.06C889.9,415.55,900.35,420,910.3,431.36Z" transform="translate(-214.42 -34.02)"/><path class="cls-3" d="M940,334.74l-6.7,11.48s8.61,1.92,21-5.73C954.3,340.49,949.52,341.44,940,334.74Z" transform="translate(-214.42 -34.02)"/><path class="cls-2" d="M870.44,715.77s-17.21,47.83-35.07,66.33l-19.13-19.77s-1.28,3.19,3.18,26.78,0,33.16,0,33.16S871.08,777.63,870.44,715.77Z" transform="translate(-214.42 -34.02)"/><path class="cls-2" d="M807.94,781.46s-1.27,17.22-15.94,37.62-22.32,49.11-23,52.3-9.56-23.6,7.66-54.21l.64,4.46S800.29,802.51,807.94,781.46Z" transform="translate(-214.42 -34.02)"/><path class="cls-2" d="M755,841.4s4.46,20.41-14.67,39.54-35.08,29.34-41.45,38.26l-6.38,8.93a73.27,73.27,0,0,1,7.65-23c6.38-12.12-10.84,10.19-26.14,10.83,0,0,35.07-30,51.65-67,0,0-2.55,23.59-9.56,36.35C716.12,885.41,740.35,868.19,755,841.4Z" transform="translate(-214.42 -34.02)"/><g class="cls-10"><path class="cls-11" d="M878.17,502A122.58,122.58,0,1,1,755.59,379.45,122.58,122.58,0,0,1,878.17,502Z" transform="translate(-214.42 -34.02)"/><path class="cls-12" d="M872.21,502A116.62,116.62,0,1,1,755.59,385.41,116.61,116.61,0,0,1,872.21,502Z" transform="translate(-214.42 -34.02)"/><path class="cls-13" d="M866.24,502A110.65,110.65,0,1,1,755.59,391.38,110.65,110.65,0,0,1,866.24,502Z" transform="translate(-214.42 -34.02)"/><path class="cls-14" d="M860.28,502A104.69,104.69,0,1,1,755.59,397.34,104.69,104.69,0,0,1,860.28,502Z" transform="translate(-214.42 -34.02)"/><path class="cls-15" d="M854.31,502a98.72,98.72,0,1,1-98.72-98.73A98.72,98.72,0,0,1,854.31,502Z" transform="translate(-214.42 -34.02)"/><path class="cls-16" d="M848.35,502a92.76,92.76,0,1,1-92.76-92.76A92.76,92.76,0,0,1,848.35,502Z" transform="translate(-214.42 -34.02)"/><path class="cls-17" d="M842.38,502a86.79,86.79,0,1,1-86.79-86.8A86.79,86.79,0,0,1,842.38,502Z" transform="translate(-214.42 -34.02)"/><path class="cls-18" d="M836.42,502a80.83,80.83,0,1,1-80.83-80.83A80.83,80.83,0,0,1,836.42,502Z" transform="translate(-214.42 -34.02)"/><path class="cls-19" d="M830.45,502a74.87,74.87,0,1,1-74.86-74.87A74.85,74.85,0,0,1,830.45,502Z" transform="translate(-214.42 -34.02)"/><path class="cls-20" d="M824.49,502a68.9,68.9,0,1,1-68.9-68.9A68.9,68.9,0,0,1,824.49,502Z" transform="translate(-214.42 -34.02)"/><path class="cls-21" d="M818.53,502a62.94,62.94,0,1,1-62.94-62.94A62.93,62.93,0,0,1,818.53,502Z" transform="translate(-214.42 -34.02)"/><path class="cls-22" d="M812.56,502a57,57,0,1,1-57-57A57,57,0,0,1,812.56,502Z" transform="translate(-214.42 -34.02)"/><path class="cls-23" d="M806.6,502a51,51,0,1,1-51-51A51,51,0,0,1,806.6,502Z" transform="translate(-214.42 -34.02)"/><path class="cls-24" d="M800.63,502a45,45,0,1,1-45-45A45,45,0,0,1,800.63,502Z" transform="translate(-214.42 -34.02)"/><path class="cls-25" d="M794.67,502A39.08,39.08,0,1,1,755.59,463,39.08,39.08,0,0,1,794.67,502Z" transform="translate(-214.42 -34.02)"/><path class="cls-26" d="M788.7,502a33.12,33.12,0,1,1-33.11-33.12A33.11,33.11,0,0,1,788.7,502Z" transform="translate(-214.42 -34.02)"/><path class="cls-27" d="M782.74,502a27.15,27.15,0,1,1-27.15-27.15A27.15,27.15,0,0,1,782.74,502Z" transform="translate(-214.42 -34.02)"/><path class="cls-28" d="M776.77,502a21.19,21.19,0,1,1-21.18-21.19A21.18,21.18,0,0,1,776.77,502Z" transform="translate(-214.42 -34.02)"/><path class="cls-2" d="M770.81,502a15.22,15.22,0,1,1-15.22-15.22A15.22,15.22,0,0,1,770.81,502Z" transform="translate(-214.42 -34.02)"/></g><g class="cls-10"><path class="cls-11" d="M647.75,502A122.59,122.59,0,1,1,525.16,379.45,122.58,122.58,0,0,1,647.75,502Z" transform="translate(-214.42 -34.02)"/><path class="cls-12" d="M641.78,502A116.62,116.62,0,1,1,525.16,385.41,116.61,116.61,0,0,1,641.78,502Z" transform="translate(-214.42 -34.02)"/><path class="cls-13" d="M635.82,502A110.66,110.66,0,1,1,525.16,391.38,110.65,110.65,0,0,1,635.82,502Z" transform="translate(-214.42 -34.02)"/><path class="cls-14" d="M629.86,502a104.69,104.69,0,1,1-104.7-104.69A104.7,104.7,0,0,1,629.86,502Z" transform="translate(-214.42 -34.02)"/><path class="cls-15" d="M623.89,502a98.73,98.73,0,1,1-98.73-98.73A98.72,98.72,0,0,1,623.89,502Z" transform="translate(-214.42 -34.02)"/><path class="cls-16" d="M617.93,502a92.76,92.76,0,1,1-92.77-92.76A92.76,92.76,0,0,1,617.93,502Z" transform="translate(-214.42 -34.02)"/><path class="cls-17" d="M612,502a86.8,86.8,0,1,1-86.8-86.8A86.8,86.8,0,0,1,612,502Z" transform="translate(-214.42 -34.02)"/><path class="cls-18" d="M606,502a80.83,80.83,0,1,1-80.84-80.83A80.83,80.83,0,0,1,606,502Z" transform="translate(-214.42 -34.02)"/><path class="cls-19" d="M600,502a74.87,74.87,0,1,1-74.87-74.87A74.86,74.86,0,0,1,600,502Z" transform="translate(-214.42 -34.02)"/><path class="cls-20" d="M594.07,502a68.91,68.91,0,1,1-68.91-68.9A68.91,68.91,0,0,1,594.07,502Z" transform="translate(-214.42 -34.02)"/><path class="cls-21" d="M588.1,502a62.94,62.94,0,1,1-62.94-62.94A62.93,62.93,0,0,1,588.1,502Z" transform="translate(-214.42 -34.02)"/><path class="cls-22" d="M582.14,502a57,57,0,1,1-57-57A57,57,0,0,1,582.14,502Z" transform="translate(-214.42 -34.02)"/><path class="cls-23" d="M576.17,502a51,51,0,1,1-51-51A51,51,0,0,1,576.17,502Z" transform="translate(-214.42 -34.02)"/><path class="cls-24" d="M570.21,502a45,45,0,1,1-45.05-45A45,45,0,0,1,570.21,502Z" transform="translate(-214.42 -34.02)"/><path class="cls-25" d="M564.25,502A39.08,39.08,0,1,1,525.16,463,39.09,39.09,0,0,1,564.25,502Z" transform="translate(-214.42 -34.02)"/><path class="cls-26" d="M558.28,502a33.12,33.12,0,1,1-33.12-33.12A33.11,33.11,0,0,1,558.28,502Z" transform="translate(-214.42 -34.02)"/><path class="cls-27" d="M552.32,502a27.15,27.15,0,1,1-27.16-27.15A27.15,27.15,0,0,1,552.32,502Z" transform="translate(-214.42 -34.02)"/><path class="cls-28" d="M546.35,502a21.19,21.19,0,1,1-21.19-21.19A21.18,21.18,0,0,1,546.35,502Z" transform="translate(-214.42 -34.02)"/><path class="cls-2" d="M540.39,502a15.23,15.23,0,1,1-15.23-15.22A15.22,15.22,0,0,1,540.39,502Z" transform="translate(-214.42 -34.02)"/></g></g></g></svg>